<svg width="16" height="16" viewBox="0 0 16 16" fill="none" xmlns="http://www.w3.org/2000/svg">
<mask id="mask0_9104_27989" style="mask-type:alpha" maskUnits="userSpaceOnUse" x="0" y="0" width="16" height="16">
<rect width="16" height="16" fill="#D9D9D9"/>
</mask>
<g mask="url(#mask0_9104_27989)">
<path d="M1.89142 11.1442C1.32264 10.148 0.916317 8.99471 0.916317 7.76548C0.916317 3.99665 3.97156 0.941406 7.74039 0.941406C8.59914 0.941406 9.42085 1.10003 10.1778 1.38957M4.16876 13.5814C5.20769 14.2208 6.43097 14.5896 7.74039 14.5896C11.5092 14.5896 14.5645 11.5343 14.5645 7.76548C14.5645 6.47914 14.2086 5.27593 13.5898 4.24896" stroke="black" stroke-linecap="round" stroke-linejoin="round"/>
<path d="M1.89142 11.1442C0.987119 12.6388 0.658803 13.6755 1.12166 14.1456C2.04256 15.081 5.74645 12.9277 9.39454 9.336C13.0426 5.74435 15.2535 2.07447 14.3326 1.13911C13.9561 0.75674 13.1146 0.890531 12.0019 1.42774" stroke="black" stroke-linecap="round"/>
<circle cx="8.22806" cy="4.32008" r="0.974868" stroke="black"/>
</g>
</svg>
