<svg width="16" height="16" viewBox="0 0 16 16" fill="none" xmlns="http://www.w3.org/2000/svg">
<mask id="mask0_16284_164028" style="mask-type:alpha" maskUnits="userSpaceOnUse" x="0" y="0" width="16" height="16">
<rect width="16" height="16" fill="#D9D9D9"/>
</mask>
<g mask="url(#mask0_16284_164028)">
<path d="M2 2.5C2 1.94772 2.44772 1.5 3 1.5H13C13.5523 1.5 14 1.94772 14 2.5V13.5C14 14.0523 13.5523 14.5 13 14.5H3C2.44772 14.5 2 14.0523 2 13.5V2.5Z" stroke="black"/>
<path d="M4.5 8L7.5 8" stroke="#181818" stroke-linecap="round"/>
<path d="M4.5 11L9.5 11" stroke="#181818" stroke-linecap="round"/>
<path d="M10.322 3.55262C10.3973 3.34933 10.6848 3.34933 10.76 3.55262L11.044 4.31991C11.0676 4.38383 11.118 4.43422 11.1819 4.45788L11.9492 4.7418C12.1525 4.81703 12.1525 5.10456 11.9492 5.17979L11.1819 5.46371C11.118 5.48737 11.0676 5.53776 11.044 5.60168L10.76 6.36897C10.6848 6.57226 10.3973 6.57226 10.322 6.36897L10.0381 5.60168C10.0145 5.53776 9.96407 5.48737 9.90016 5.46371L9.13286 5.17979C8.92957 5.10456 8.92957 4.81703 9.13287 4.7418L9.90016 4.45788C9.96407 4.43422 10.0145 4.38383 10.0381 4.31991L10.322 3.55262Z" fill="#181818"/>
</g>
</svg>
